:SAMPLES-PER-SECOND 25
:FULLY-SPECIFIED
:DEGREES
762
root  12.7892 38.7438 -69.925 177.929 31.9601 -178.698
RightUpLeg  3.83645 6.16078 5.17829
RightLeg  20.4614 22.8418 8.93842
RightFoot  -17.2717 -0.577681 -8.87407
RightToes  2.84633e-005 7.89722e-005 -0.000426369
Spine  2.31735 0.135774 0.940073
Spine1  4.49808 0.0822231 3.38008
HEad  33.5868 0.605224 -6.23838
LeftShoulder1  -3.88251e-019 0 -3.92111e-022
LeftArm  -38.7036 26.4219 -71.6752
LeftForeArm  25.1245 2.23959 1.97319
LeftHand  -0.779427 -2.88331 11.1535
RightShoulder  7.45443e-017 -2.42657e-020 1.96277e-018
RightArm  11.8083 -18.2385 42.7773
RightForeArm  10.8727 19.3272 7.45213
RightHand  -1.96218 13.1616 -12.6154
LeftUpLeg  -21.8955 4.5115 6.18698
LeftLeg  4.38592 -2.51038 1.94092
LeftFoot  0.94935 0.042286 -0.450046
LeftToes  3.91355e-005 3.11907e-005 -4.10385e-006
763
root  12.8196 38.585 -71.5582 178.56 32.5649 -178.335
RightUpLeg  6.38483 5.32478 3.91105
RightLeg  19.3531 24.3379 8.95972
RightFoot  -18.9519 -0.738332 -9.15693
RightToes  2.84633e-005 7.89722e-005 -0.000426369
Spine  1.85076 0.80261 1.11078
Spine1  3.5647 1.41375 3.81872
HEad  35.0173 1.96241 -7.75843
LeftShoulder1  -3.88251e-019 0 -3.92111e-022
LeftArm  -40.0644 28.3921 -73.4685
LeftForeArm  18.5985 2.26198 2.2611
LeftHand  -0.773516 -3.16099 10.7258
RightShoulder  7.45443e-017 -2.42657e-020 1.96277e-018
RightArm  13.6576 -15.3462 45.7707
RightForeArm  5.01801 20.8435 6.33536
RightHand  -2.20675 12.9098 -14.3053
LeftUpLeg  -20.8726 4.26993 6.24176
LeftLeg  1.53642 3.316 1.99906
LeftFoot  0.850096 0.197026 -1.87765
LeftToes  3.91355e-005 3.11907e-005 -4.10385e-006
764
root  12.9119 38.5122 -73.2832 177.844 32.3068 -179.399
RightUpLeg  9.75107 4.83243 1.68213
RightLeg  18.1251 25.027 8.44596
RightFoot  -20.0714 -0.805556 -8.76174
RightToes  2.84633e-005 7.89722e-005 -0.000426369
Spine  1.64144 1.33535 0.873598
Spine1  3.15964 2.43487 3.25316
HEad  35.4685 2.06691 -8.27349
LeftShoulder1  -3.88251e-019 0 -3.92111e-022
LeftArm  -41.1683 30.3664 -76.1499
LeftForeArm  12.2957 2.34155 1.87557
LeftHand  -0.70899 -3.13772 9.88927
RightShoulder  7.45443e-017 -2.42657e-020 1.96277e-018
RightArm  14.6752 -14.5314 48.5046
RightForeArm  -0.740033 22.9065 5.2901
RightHand  -1.98092 13.0339 -12.8208
LeftUpLeg  -18.8583 3.12529 4.62532
LeftLeg  1.5981 11.1796 2.30848
LeftFoot  3.12753 0.09881 -1.03287
LeftToes  3.91355e-005 3.11907e-005 -4.10385e-006
765
root  13.0528 38.4507 -75.1155 176.156 31.6896 178.989
RightUpLeg  13.4615 4.85747 -0.860809
RightLeg  18.0501 24.8271 8.33083
RightFoot  -19.8377 -0.731721 -8.04064
RightToes  2.84633e-005 7.89722e-005 -0.000426369
Spine  1.6495 1.85763 0.448026
Spine1  3.17105 3.41218 2.35951
HEad  35.8438 1.72898 -8.39647
LeftShoulder1  -3.88251e-019 0 -3.92111e-022
LeftArm  -42.0187 31.0974 -78.6557
LeftForeArm  10.8575 2.36634 1.95772
LeftHand  -0.742839 -3.27945 10.18
RightShoulder  7.45443e-017 -2.42657e-020 1.96277e-018
RightArm  13.0157 -14.6249 51.4859
RightForeArm  -1.22285 24.1196 5.21085
RightHand  -1.87491 13.0512 -12.1494
LeftUpLeg  -17.0758 1.90482 2.50309
LeftLeg  4.0353 13.9623 2.46707
LeftFoot  9.16555 0.153511 -1.13724
LeftToes  3.91355e-005 3.11907e-005 -4.10385e-006
766
root  13.2021 38.3579 -76.9406 174.288 30.2372 176.407
RightUpLeg  15.2534 4.51004 -4.6197
RightLeg  21.647 24.6277 10.1635
RightFoot  -18.3219 -0.536835 -6.76336
RightToes  2.84633e-005 7.89722e-005 -0.000426369
Spine  1.47777 2.00379 -0.348437
Spine1  2.78596 3.62123 0.794186
HEad  36.7168 1.96935 -8.16955
LeftShoulder1  -3.88251e-019 0 -3.92111e-022
LeftArm  -42.6909 30.7304 -80.1483
LeftForeArm  12.8604 2.3421 1.80913
LeftHand  -0.671056 -3.76483 8.76736
RightShoulder  7.45443e-017 -2.42657e-020 1.96277e-018
RightArm  10.5812 -15.2828 54.9999
RightForeArm  1.178 24.457 5.17381
RightHand  -1.94327 13.3926 -12.3559
LeftUpLeg  -17.2669 0.425102 -0.731815
LeftLeg  10.1135 12.8066 2.43081
LeftFoot  9.61394 -0.301591 1.31328
LeftToes  3.91355e-005 3.11907e-005 -4.10385e-006
767
root  13.3076 38.2799 -78.5412 172.287 28.1973 172.845
RightUpLeg  13.6667 3.15413 -9.71449
RightLeg  30.7181 23.9091 14.3886
RightFoot  -13.5819 -0.170695 -3.48392
RightToes  2.84633e-005 7.89722e-005 -0.000426369
Spine  1.51219 2.13388 -2.07183
Spine1  2.73091 3.70307 -2.03754
HEad  37.5894 1.59718 -6.99615
LeftShoulder1  -3.88251e-019 0 -3.92111e-022
LeftArm  -41.9126 28.7047 -79.976
LeftForeArm  15.453 2.30781 1.62984
LeftHand  -0.589996 -3.79071 7.72418
RightShoulder  7.45443e-017 -2.42657e-020 1.96277e-018
RightArm  7.50204 -15.9738 59.9724
RightForeArm  0.376267 23.6604 5.09957
RightHand  -1.64409 12.9651 -10.7676
LeftUpLeg  -16.2805 -1.22401 -5.42286
LeftLeg  13.7252 12.6262 2.91629
LeftFoot  4.90887 -0.209865 1.25792
LeftToes  3.91355e-005 3.11907e-005 -4.10385e-006
768
root  13.3719 38.1545 -79.8443 170.514 27.5758 170.437
RightUpLeg  8.56433 3.19044 -12.9697
RightLeg  43.8291 19.6957 18.95
RightFoot  -4.10394 -0.112259 1.42512
RightToes  2.84633e-005 7.89722e-005 -0.000426369
Spine  1.89789 2.64076 -3.25062
Spine1  3.38738 4.47934 -3.55877
HEad  38.3021 1.9652 -7.24153
LeftShoulder1  -3.88251e-019 0 -3.92111e-022
LeftArm  -41.1529 25.817 -80.0338
LeftForeArm  15.9636 2.30375 1.28151
LeftHand  -0.649626 -4.15776 8.16091
RightShoulder  7.45443e-017 -2.42657e-020 1.96277e-018
RightArm  4.15494 -15.9334 63.9895
RightForeArm  0.664115 21.9333 5.50085
RightHand  -1.35417 12.5974 -9.10307
LeftUpLeg  -14.6347 -0.528632 -8.67822
LeftLeg  15.8912 11.5696 2.74726
LeftFoot  1.60738 -0.138851 1.14393
LeftToes  3.91355e-005 3.11907e-005 -4.10385e-006
769
root  13.4584 38.0391 -80.9489 169.721 27.8357 169.311
RightUpLeg  0.906237 3.72254 -14.5176
RightLeg  56.0715 13.6556 20.3133
RightFoot  7.0776 -1.45296 8.7537
RightToes  2.84633e-005 7.89722e-005 -0.000426369
Spine  2.15535 2.99235 -3.77392
Spine1  3.88585 5.13253 -4.2449
HEad  37.9197 3.88996 -8.21124
LeftShoulder1  -3.88251e-019 0 -3.92111e-022
LeftArm  -40.6405 23.1987 -80.6385
LeftForeArm  15.2064 2.32076 1.14302
LeftHand  -0.688073 -4.65503 8.24168
RightShoulder  7.45443e-017 -2.42657e-020 1.96277e-018
RightArm  3.37311 -14.2645 66.5958
RightForeArm  3.17159 20.2355 6.64757
RightHand  -1.12682 12.0499 -7.89796
LeftUpLeg  -13.669 0.498864 -10.6612
LeftLeg  17.9073 11.0143 3.32231
LeftFoot  -1.05936 -0.121764 1.43294
LeftToes  3.91355e-005 3.11907e-005 -4.10385e-006
770
root  13.6915 38.0592 -81.9068 169.671 25.7406 169.291
RightUpLeg  -6.10152 2.02046 -14.6014
RightLeg  64.0535 7.90145 16.5934
RightFoot  8.62698 -2.35236 13.7939
RightToes  2.84633e-005 7.89722e-005 -0.000426369
Spine  2.41026 2.34699 -3.90142
Spine1  4.42687 3.81614 -4.08296
HEad  37.7574 5.98451 -9.54083
LeftShoulder1  -3.88251e-019 0 -3.92111e-022
LeftArm  -40.3658 20.3784 -81.1346
LeftForeArm  15.8585 2.3363 0.982404
LeftHand  -0.645371 -4.65757 7.7418
RightShoulder  7.45443e-017 -2.42657e-020 1.96277e-018
RightArm  -0.782975 -11.3863 68.193
RightForeArm  11.9614 16.7348 9.10256
RightHand  -1.2545 12.5335 -8.51141
LeftUpLeg  -12.226 0.0554704 -11.748
LeftLeg  18.7253 9.52507 3.1614
LeftFoot  -2.95176 -0.0798143 1.31927
LeftToes  3.91355e-005 3.11907e-005 -4.10385e-006
771
root  14.0395 38.1192 -82.7131 170.13 21.731 170.13
RightUpLeg  -11.9912 -0.613152 -13.2547
RightLeg  67.8386 5.7212 14.5331
RightFoot  3.52883 -1.15082 8.98669
RightToes  2.84633e-005 7.89722e-005 -0.000426369
Spine  2.71518 1.49711 -4.0432
Spine1  5.08226 2.09173 -3.66752
HEad  37.3352 6.63895 -10.1382
LeftShoulder1  -3.88251e-019 0 -3.92111e-022
LeftArm  -38.8669 16.134 -80.8181
LeftForeArm  17.5769 2.23203 0.869721
LeftHand  -0.676799 -5.37579 7.60313
RightShoulder  7.45443e-017 -2.42657e-020 1.96277e-018
RightArm  -7.20694 -9.86829 69.7016
RightForeArm  19.4604 13.8782 10.4152
RightHand  -1.28934 12.8011 -8.61692
LeftUpLeg  -10.9837 -0.517788 -12.0756
LeftLeg  19.6982 6.51791 2.38926
LeftFoot  -4.44288 -0.0916427 1.96492
LeftToes  3.91355e-005 3.11907e-005 -4.10385e-006
772
root  14.49 38.1401 -83.4575 170.948 16.8168 171.575
RightUpLeg  -16.8118 -3.01828 -11.1747
RightLeg  66.4872 5.29664 12.5623
RightFoot  -0.793281 -0.707468 7.59815
RightToes  2.84633e-005 7.89722e-005 -0.000426369
Spine  2.97898 0.689555 -3.7673
Spine1  5.72818 0.66435 -3.05567
HEad  36.8297 6.23518 -10.5238
LeftShoulder1  -3.88251e-019 0 -3.92111e-022
LeftArm  -37.3428 11.758 -80.8914
LeftForeArm  20.229 0.729028 1.06313
LeftHand  -0.773264 -5.41258 8.61023
RightShoulder  7.45443e-017 -2.42657e-020 1.96277e-018
RightArm  -12.4375 -9.25504 70.5665
RightForeArm  22.0251 11.908 10.8798
RightHand  -1.54568 12.8624 -10.2045
LeftUpLeg  -10.2079 -0.315964 -11.5038
LeftLeg  21.3321 1.74211 0.96132
LeftFoot  -6.29253 -0.0964699 3.03696
LeftToes  3.91355e-005 3.11907e-005 -4.10385e-006
773
root  14.9988 38.2103 -84.1458 172.021 11.4915 173.135
RightUpLeg  -20.1163 -3.73079 -9.55359
RightLeg  59.7573 6.81899 12.0699
RightFoot  -5.64592 -0.415179 7.64912
RightToes  2.84633e-005 7.89722e-005 -0.000426369
Spine  3.05064 0.00654374 -3.15593
Spine1  6.00846 -0.398592 -2.30416
HEad  36.9097 5.01749 -10.2478
LeftShoulder1  -3.88251e-019 0 -3.92111e-022
LeftArm  -36.2469 8.11432 -81.2653
LeftForeArm  21.5038 -2.88193 0.595744
LeftHand  -0.894924 -5.77189 9.6082
RightShoulder  7.45443e-017 -2.42657e-020 1.96277e-018
RightArm  -16.8184 -9.14159 70.6299
RightForeArm  23.7731 10.3472 10.8218
RightHand  -1.52684 12.8776 -10.0749
LeftUpLeg  -9.73425 -1.60024 -10.341
LeftLeg  22.6545 -2.02295 -0.563225
LeftFoot  -7.91297 -0.0560894 3.46166
LeftToes  3.91355e-005 3.11907e-005 -4.10385e-006
774
root  15.5518 38.4389 -84.7266 173.432 5.49446 175.072
RightUpLeg  -21.0196 -2.48141 -8.54129
RightLeg  47.7455 11.5454 12.9117
RightFoot  -7.81439 -0.333931 9.11188
RightToes  2.84633e-005 7.89722e-005 -0.000426369
Spine  2.93632 -0.687469 -1.77309
Spine1  5.8804 -1.49533 -0.791261
HEad  36.9988 3.56197 -10.2666
LeftShoulder1  -3.88251e-019 0 -3.92111e-022
LeftArm  -35.3059 5.18353 -81.888
LeftForeArm  23.0271 -7.09085 -0.401134
LeftHand  -0.994594 -5.92212 10.508
RightShoulder  7.45443e-017 -2.42657e-020 1.96277e-018
RightArm  -19.8802 -9.45229 69.9586
RightForeArm  26.927 9.20168 10.1702
RightHand  -1.53354 12.9507 -10.0807
LeftUpLeg  -9.5114 -3.74019 -8.30373
LeftLeg  22.9266 -5.94911 -2.41727
LeftFoot  -8.37945 -0.0421379 3.57839
LeftToes  3.91355e-005 3.11907e-005 -4.10385e-006
775
root  16.1096 38.7022 -85.2948 174.144 -0.75382 176.769
RightUpLeg  -19.6872 3.534 -9.1791
RightLeg  34.822 19.373 13.6826
RightFoot  -8.6037 -0.276641 9.11001
RightToes  2.84633e-005 7.89722e-005 -0.000426369
Spine  2.997 -1.09317 -0.30853
Spine1  6.02348 -2.18706 0.566215
HEad  36.6701 2.09278 -10.0064
LeftShoulder1  -3.88251e-019 0 -3.92111e-022
LeftArm  -34.18 2.89803 -82.7558
LeftForeArm  24.2213 -11.099 -1.03201
LeftHand  -1.02249 -6.06422 10.6644
RightShoulder  7.45443e-017 -2.42657e-020 1.96277e-018
RightArm  -22.5481 -10.4439 69.5426
RightForeArm  29.4682 8.32933 9.23627
RightHand  -1.39233 12.6743 -9.32766
LeftUpLeg  -8.69926 -6.14654 -6.28806
LeftLeg  22.4695 -9.89792 -4.12712
LeftFoot  -8.48605 -0.0254472 3.06767
LeftToes  3.91355e-005 3.11907e-005 -4.10385e-006
776
root  16.8146 38.6694 -85.9402 174.625 -7.89735 176.998
RightUpLeg  -18.1416 13.7613 -12.5809
RightLeg  26.2567 25.6959 12.939
RightFoot  -10.3269 -0.14499 8.42435
RightToes  2.84633e-005 7.89722e-005 -0.000426369
Spine  3.0334 -1.62777 0.487266
Spine1  6.07243 -3.23222 0.604329
HEad  36.1281 1.13996 -9.9809
LeftShoulder1  -3.88251e-019 0 -3.92111e-022
LeftArm  -33.3363 0.209702 -83.2004
LeftForeArm  25.2537 -12.9111 -1.60681
LeftHand  -1.00937 -5.95374 10.6291
RightShoulder  7.45443e-017 -2.42657e-020 1.96277e-018
RightArm  -24.3304 -11.1824 68.9705
RightForeArm  30.5012 6.80305 8.44715
RightHand  -1.32792 12.3737 -9.05966
LeftUpLeg  -8.85536 -8.52926 -5.48856
LeftLeg  24.0664 -14.2055 -6.51937
LeftFoot  -9.55917 0.0107772 3.00358
LeftToes  3.91355e-005 3.11907e-005 -4.10385e-006
